<svg width="224" height="83" viewBox="0 0 224 83" fill="none" xmlns="http://www.w3.org/2000/svg">
<circle cx="4" cy="39" r="4" fill="#0F766E"/>
<path d="M22.9766 23.5156V53.75H16.7656V18.6406H22.5078L22.9766 23.5156ZM39.2656 31.0625V31.5547C39.2656 33.3984 39.0469 35.1094 38.6094 36.6875C38.1875 38.25 37.5625 39.6172 36.7344 40.7891C35.9062 41.9453 34.875 42.8516 33.6406 43.5078C32.4219 44.1484 31.0156 44.4688 29.4219 44.4688C27.8594 44.4688 26.5 44.1719 25.3438 43.5781C24.1875 42.9688 23.2109 42.1094 22.4141 41C21.6172 39.8906 20.9766 38.6016 20.4922 37.1328C20.0234 35.6484 19.6719 34.0312 19.4375 32.2812V30.7109C19.6719 28.8516 20.0234 27.1641 20.4922 25.6484C20.9766 24.1172 21.6172 22.7969 22.4141 21.6875C23.2109 20.5625 24.1797 19.6953 25.3203 19.0859C26.4766 18.4766 27.8281 18.1719 29.375 18.1719C30.9844 18.1719 32.3984 18.4766 33.6172 19.0859C34.8516 19.6953 35.8906 20.5703 36.7344 21.7109C37.5781 22.8516 38.2109 24.2109 38.6328 25.7891C39.0547 27.3672 39.2656 29.125 39.2656 31.0625ZM33.0547 31.5547V31.0625C33.0547 29.9375 32.9531 28.8984 32.75 27.9453C32.5469 26.9766 32.2344 26.1328 31.8125 25.4141C31.3906 24.6797 30.8438 24.1094 30.1719 23.7031C29.5 23.2969 28.6875 23.0938 27.7344 23.0938C26.7812 23.0938 25.9609 23.25 25.2734 23.5625C24.5859 23.875 24.0234 24.3203 23.5859 24.8984C23.1484 25.4766 22.8047 26.1641 22.5547 26.9609C22.3203 27.7422 22.1641 28.6094 22.0859 29.5625V33.4531C22.2266 34.6094 22.5 35.6484 22.9062 36.5703C23.3125 37.4922 23.9062 38.2266 24.6875 38.7734C25.4844 39.3203 26.5156 39.5938 27.7812 39.5938C28.7344 39.5938 29.5469 39.3828 30.2188 38.9609C30.8906 38.5391 31.4375 37.9609 31.8594 37.2266C32.2812 36.4766 32.5859 35.6172 32.7734 34.6484C32.9609 33.6797 33.0547 32.6484 33.0547 31.5547ZM47.5766 23.8203V44H41.3891V18.6406H47.2484L47.5766 23.8203ZM55.2875 18.4766L55.1938 24.2422C54.85 24.1797 54.4594 24.1328 54.0219 24.1016C53.6 24.0703 53.2016 24.0547 52.8266 24.0547C51.8734 24.0547 51.0375 24.1875 50.3188 24.4531C49.6 24.7031 48.9984 25.0703 48.5141 25.5547C48.0453 26.0391 47.6859 26.6328 47.4359 27.3359C47.1859 28.0234 47.0453 28.8047 47.0141 29.6797L45.6781 29.5156C45.6781 27.9062 45.8422 26.4141 46.1703 25.0391C46.4984 23.6641 46.975 22.4609 47.6 21.4297C48.225 20.3984 49.0063 19.6016 49.9438 19.0391C50.8969 18.4609 51.9906 18.1719 53.225 18.1719C53.5688 18.1719 53.9359 18.2031 54.3266 18.2656C54.7328 18.3125 55.0531 18.3828 55.2875 18.4766ZM62.8484 18.6406V44H56.6375V18.6406H62.8484ZM56.2156 12.0078C56.2156 11.0859 56.5281 10.3203 57.1531 9.71094C57.7938 9.10156 58.6531 8.79688 59.7313 8.79688C60.8094 8.79688 61.6609 9.10156 62.2859 9.71094C62.9266 10.3203 63.2469 11.0859 63.2469 12.0078C63.2469 12.9141 62.9266 13.6719 62.2859 14.2812C61.6609 14.8906 60.8094 15.1953 59.7313 15.1953C58.6531 15.1953 57.7938 14.8906 57.1531 14.2812C56.5281 13.6719 56.2156 12.9141 56.2156 12.0078ZM74.7687 39.3125L80.675 18.6406H87.1437L78.4484 44H74.5109L74.7687 39.3125ZM70.4562 18.6406L76.4328 39.3594L76.6437 44H72.6828L63.9641 18.6406H70.4562ZM94.5641 18.6406V44H88.3531V18.6406H94.5641ZM87.9313 12.0078C87.9313 11.0859 88.2438 10.3203 88.8688 9.71094C89.5094 9.10156 90.3688 8.79688 91.4469 8.79688C92.525 8.79688 93.3766 9.10156 94.0016 9.71094C94.6422 10.3203 94.9625 11.0859 94.9625 12.0078C94.9625 12.9141 94.6422 13.6719 94.0016 14.2812C93.3766 14.8906 92.525 15.1953 91.4469 15.1953C90.3688 15.1953 89.5094 14.8906 88.8688 14.2812C88.2438 13.6719 87.9313 12.9141 87.9313 12.0078ZM104.633 8V44H98.4219V8H104.633ZM114.702 8V44H108.491V8H114.702ZM129.598 44.4688C127.677 44.4688 125.95 44.1562 124.419 43.5312C122.887 42.9062 121.583 42.0391 120.505 40.9297C119.442 39.8047 118.622 38.5 118.044 37.0156C117.481 35.5156 117.2 33.9062 117.2 32.1875V31.25C117.2 29.2969 117.481 27.5234 118.044 25.9297C118.606 24.3203 119.403 22.9375 120.434 21.7812C121.466 20.625 122.7 19.7344 124.137 19.1094C125.575 18.4844 127.161 18.1719 128.895 18.1719C130.692 18.1719 132.278 18.4766 133.653 19.0859C135.028 19.6797 136.177 20.5234 137.098 21.6172C138.02 22.7109 138.716 24.0234 139.184 25.5547C139.653 27.0703 139.887 28.75 139.887 30.5938V33.1953H120.012V28.9297H133.794V28.4609C133.762 27.4766 133.575 26.5781 133.231 25.7656C132.887 24.9375 132.356 24.2812 131.637 23.7969C130.919 23.2969 129.989 23.0469 128.848 23.0469C127.927 23.0469 127.122 23.25 126.434 23.6562C125.762 24.0469 125.2 24.6094 124.747 25.3438C124.309 26.0625 123.981 26.9219 123.762 27.9219C123.544 28.9219 123.434 30.0312 123.434 31.25V32.1875C123.434 33.25 123.575 34.2344 123.856 35.1406C124.153 36.0469 124.583 36.8359 125.145 37.5078C125.723 38.1641 126.411 38.6797 127.208 39.0547C128.02 39.4141 128.942 39.5938 129.973 39.5938C131.27 39.5938 132.442 39.3438 133.489 38.8438C134.552 38.3281 135.473 37.5703 136.255 36.5703L139.372 39.8047C138.841 40.5859 138.122 41.3359 137.216 42.0547C136.325 42.7734 135.247 43.3594 133.981 43.8125C132.716 44.25 131.255 44.4688 129.598 44.4688ZM126.809 7.97656L131.403 15.1016H126.27L119.942 7.97656H126.809ZM157.761 18.6406H163.386V43.2266C163.386 45.5234 162.886 47.4688 161.886 49.0625C160.902 50.6719 159.519 51.8906 157.738 52.7188C155.956 53.5625 153.886 53.9844 151.527 53.9844C150.511 53.9844 149.409 53.8438 148.222 53.5625C147.05 53.2812 145.917 52.8359 144.823 52.2266C143.745 51.6328 142.847 50.8594 142.128 49.9062L144.917 46.25C145.761 47.2344 146.714 47.9766 147.777 48.4766C148.839 48.9922 149.988 49.25 151.222 49.25C152.472 49.25 153.534 49.0156 154.409 48.5469C155.3 48.0938 155.98 47.4219 156.448 46.5312C156.933 45.6562 157.175 44.5781 157.175 43.2969V24.4297L157.761 18.6406ZM140.628 31.625V31.1328C140.628 29.1953 140.863 27.4375 141.331 25.8594C141.8 24.2656 142.472 22.8984 143.347 21.7578C144.238 20.6172 145.308 19.7344 146.558 19.1094C147.823 18.4844 149.245 18.1719 150.823 18.1719C152.495 18.1719 153.902 18.4766 155.042 19.0859C156.198 19.6953 157.152 20.5625 157.902 21.6875C158.667 22.8125 159.261 24.1484 159.683 25.6953C160.12 27.2266 160.456 28.9141 160.691 30.7578V32.0938C160.472 33.8906 160.12 35.5391 159.636 37.0391C159.167 38.5391 158.542 39.8516 157.761 40.9766C156.98 42.0859 156.011 42.9453 154.855 43.5547C153.698 44.1641 152.339 44.4688 150.777 44.4688C149.214 44.4688 147.808 44.1484 146.558 43.5078C145.308 42.8672 144.238 41.9688 143.347 40.8125C142.472 39.6562 141.8 38.2969 141.331 36.7344C140.863 35.1719 140.628 33.4688 140.628 31.625ZM146.816 31.1328V31.625C146.816 32.7188 146.925 33.7422 147.144 34.6953C147.363 35.6484 147.698 36.4922 148.152 37.2266C148.605 37.9453 149.175 38.5078 149.863 38.9141C150.55 39.3203 151.37 39.5234 152.323 39.5234C153.605 39.5234 154.652 39.2578 155.464 38.7266C156.292 38.1797 156.917 37.4375 157.339 36.5C157.777 35.5469 158.058 34.4766 158.183 33.2891V29.6094C158.105 28.6719 157.933 27.8047 157.667 27.0078C157.417 26.2109 157.066 25.5234 156.613 24.9453C156.159 24.3672 155.581 23.9141 154.878 23.5859C154.175 23.2578 153.339 23.0938 152.37 23.0938C151.433 23.0938 150.613 23.3047 149.909 23.7266C149.206 24.1328 148.628 24.7031 148.175 25.4375C147.722 26.1719 147.378 27.0234 147.144 27.9922C146.925 28.9609 146.816 30.0078 146.816 31.1328ZM177.955 44.4688C176.033 44.4688 174.306 44.1562 172.775 43.5312C171.244 42.9062 169.939 42.0391 168.861 40.9297C167.798 39.8047 166.978 38.5 166.4 37.0156C165.837 35.5156 165.556 33.9062 165.556 32.1875V31.25C165.556 29.2969 165.837 27.5234 166.4 25.9297C166.962 24.3203 167.759 22.9375 168.791 21.7812C169.822 20.625 171.056 19.7344 172.494 19.1094C173.931 18.4844 175.517 18.1719 177.252 18.1719C179.048 18.1719 180.634 18.4766 182.009 19.0859C183.384 19.6797 184.533 20.5234 185.455 21.6172C186.377 22.7109 187.072 24.0234 187.541 25.5547C188.009 27.0703 188.244 28.75 188.244 30.5938V33.1953H168.369V28.9297H182.15V28.4609C182.119 27.4766 181.931 26.5781 181.587 25.7656C181.244 24.9375 180.712 24.2812 179.994 23.7969C179.275 23.2969 178.345 23.0469 177.205 23.0469C176.283 23.0469 175.478 23.25 174.791 23.6562C174.119 24.0469 173.556 24.6094 173.103 25.3438C172.666 26.0625 172.337 26.9219 172.119 27.9219C171.9 28.9219 171.791 30.0312 171.791 31.25V32.1875C171.791 33.25 171.931 34.2344 172.212 35.1406C172.509 36.0469 172.939 36.8359 173.502 37.5078C174.08 38.1641 174.767 38.6797 175.564 39.0547C176.377 39.4141 177.298 39.5938 178.33 39.5938C179.627 39.5938 180.798 39.3438 181.845 38.8438C182.908 38.3281 183.83 37.5703 184.611 36.5703L187.728 39.8047C187.197 40.5859 186.478 41.3359 185.572 42.0547C184.681 42.7734 183.603 43.3594 182.337 43.8125C181.072 44.25 179.611 44.4688 177.955 44.4688Z" fill="#D0D9ED"/>
<path d="M45.0781 57.2598V68H41.4219V54.2637H44.8623L45.0781 57.2598ZM49.2168 54.1748L49.1533 57.5645C48.9756 57.5391 48.7598 57.5179 48.5059 57.501C48.2604 57.4756 48.0361 57.4629 47.833 57.4629C47.3167 57.4629 46.8682 57.5306 46.4873 57.666C46.1149 57.793 45.8018 57.9834 45.5479 58.2373C45.3024 58.4912 45.1162 58.8001 44.9893 59.1641C44.8708 59.528 44.8031 59.9427 44.7861 60.4082L44.0498 60.1797C44.0498 59.291 44.1387 58.4743 44.3164 57.7295C44.4941 56.9762 44.7523 56.3203 45.0908 55.7617C45.4378 55.2031 45.861 54.7715 46.3604 54.4668C46.8597 54.1621 47.431 54.0098 48.0742 54.0098C48.2773 54.0098 48.4847 54.0267 48.6963 54.0605C48.9079 54.0859 49.0814 54.124 49.2168 54.1748ZM53.5027 54.2637V68H49.8338V54.2637H53.5027ZM49.6053 50.6836C49.6053 50.1504 49.7915 49.7103 50.1639 49.3633C50.5363 49.0163 51.0356 48.8428 51.6619 48.8428C52.2798 48.8428 52.7749 49.0163 53.1473 49.3633C53.5281 49.7103 53.7186 50.1504 53.7186 50.6836C53.7186 51.2168 53.5281 51.6569 53.1473 52.0039C52.7749 52.3509 52.2798 52.5244 51.6619 52.5244C51.0356 52.5244 50.5363 52.3509 50.1639 52.0039C49.7915 51.6569 49.6053 51.2168 49.6053 50.6836ZM54.6402 61.2715V61.0049C54.6402 59.9977 54.7841 59.071 55.0719 58.2246C55.3596 57.3698 55.7786 56.6292 56.3287 56.0029C56.8788 55.3766 57.5559 54.89 58.36 54.543C59.164 54.1875 60.0865 54.0098 61.1275 54.0098C62.1686 54.0098 63.0953 54.1875 63.9078 54.543C64.7203 54.89 65.4016 55.3766 65.9518 56.0029C66.5104 56.6292 66.9335 57.3698 67.2213 58.2246C67.509 59.071 67.6529 59.9977 67.6529 61.0049V61.2715C67.6529 62.2702 67.509 63.1969 67.2213 64.0518C66.9335 64.8981 66.5104 65.6387 65.9518 66.2734C65.4016 66.8997 64.7245 67.3864 63.9205 67.7334C63.1165 68.0804 62.1939 68.2539 61.1529 68.2539C60.1119 68.2539 59.1852 68.0804 58.3727 67.7334C57.5686 67.3864 56.8873 66.8997 56.3287 66.2734C55.7786 65.6387 55.3596 64.8981 55.0719 64.0518C54.7841 63.1969 54.6402 62.2702 54.6402 61.2715ZM58.2965 61.0049V61.2715C58.2965 61.847 58.3473 62.3844 58.4488 62.8838C58.5504 63.3831 58.7112 63.8232 58.9312 64.2041C59.1598 64.5765 59.456 64.8685 59.8199 65.0801C60.1839 65.2917 60.6282 65.3975 61.1529 65.3975C61.6607 65.3975 62.0966 65.2917 62.4605 65.0801C62.8245 64.8685 63.1165 64.5765 63.3365 64.2041C63.5566 63.8232 63.7174 63.3831 63.8189 62.8838C63.929 62.3844 63.984 61.847 63.984 61.2715V61.0049C63.984 60.4463 63.929 59.9215 63.8189 59.4307C63.7174 58.9313 63.5523 58.4912 63.3238 58.1104C63.1038 57.721 62.8118 57.4163 62.4479 57.1963C62.0839 56.9762 61.6438 56.8662 61.1275 56.8662C60.6113 56.8662 60.1712 56.9762 59.8072 57.1963C59.4518 57.4163 59.1598 57.721 58.9312 58.1104C58.7112 58.4912 58.5504 58.9313 58.4488 59.4307C58.3473 59.9215 58.2965 60.4463 58.2965 61.0049ZM73.7746 48.5H77.4309V64.8516L77.0627 68H73.7746V48.5ZM86.1271 60.9922V61.2588C86.1271 62.2829 86.0171 63.2223 85.7971 64.0771C85.5855 64.932 85.2554 65.6725 84.8068 66.2988C84.3583 66.9167 83.7997 67.3991 83.1311 67.7461C82.4709 68.0846 81.6923 68.2539 80.7951 68.2539C79.9572 68.2539 79.2294 68.0846 78.6115 67.7461C78.0021 67.4076 77.4901 66.9294 77.0754 66.3115C76.6607 65.6937 76.3264 64.9701 76.0725 64.1406C75.8186 63.3112 75.6281 62.4056 75.5012 61.4238V60.8398C75.6281 59.8581 75.8186 58.9525 76.0725 58.123C76.3264 57.2936 76.6607 56.57 77.0754 55.9521C77.4901 55.3343 78.0021 54.8561 78.6115 54.5176C79.2209 54.179 79.9403 54.0098 80.7697 54.0098C81.6753 54.0098 82.4624 54.1833 83.1311 54.5303C83.8081 54.8688 84.3667 55.3512 84.8068 55.9775C85.2554 56.5954 85.5855 57.3317 85.7971 58.1865C86.0171 59.0329 86.1271 59.9681 86.1271 60.9922ZM82.4709 61.2588V60.9922C82.4709 60.4336 82.4286 59.9089 82.3439 59.418C82.2678 58.9186 82.1324 58.4827 81.9377 58.1104C81.743 57.7295 81.4764 57.429 81.1379 57.209C80.8078 56.9889 80.3804 56.8789 79.8557 56.8789C79.3563 56.8789 78.9331 56.9635 78.5861 57.1328C78.2391 57.3021 77.9514 57.5391 77.7229 57.8438C77.5028 58.1484 77.3378 58.5124 77.2277 58.9355C77.1177 59.3503 77.05 59.8073 77.0246 60.3066V61.9697C77.05 62.6383 77.16 63.2308 77.3547 63.7471C77.5578 64.2549 77.8625 64.6569 78.2687 64.9531C78.6835 65.2409 79.2209 65.3848 79.8811 65.3848C80.3973 65.3848 80.8247 65.2832 81.1633 65.0801C81.5018 64.877 81.7642 64.5892 81.9504 64.2168C82.1451 63.8444 82.2805 63.4085 82.3566 62.9092C82.4328 62.4014 82.4709 61.8512 82.4709 61.2588ZM86.5156 61.2715V61.0049C86.5156 59.9977 86.6595 59.071 86.9473 58.2246C87.235 57.3698 87.654 56.6292 88.2041 56.0029C88.7542 55.3766 89.4313 54.89 90.2354 54.543C91.0394 54.1875 91.9619 54.0098 93.0029 54.0098C94.0439 54.0098 94.9707 54.1875 95.7832 54.543C96.5957 54.89 97.277 55.3766 97.8271 56.0029C98.3857 56.6292 98.8089 57.3698 99.0967 58.2246C99.3844 59.071 99.5283 59.9977 99.5283 61.0049V61.2715C99.5283 62.2702 99.3844 63.1969 99.0967 64.0518C98.8089 64.8981 98.3857 65.6387 97.8271 66.2734C97.277 66.8997 96.5999 67.3864 95.7959 67.7334C94.9919 68.0804 94.0693 68.2539 93.0283 68.2539C91.9873 68.2539 91.0605 68.0804 90.248 67.7334C89.444 67.3864 88.7627 66.8997 88.2041 66.2734C87.654 65.6387 87.235 64.8981 86.9473 64.0518C86.6595 63.1969 86.5156 62.2702 86.5156 61.2715ZM90.1719 61.0049V61.2715C90.1719 61.847 90.2227 62.3844 90.3242 62.8838C90.4258 63.3831 90.5866 63.8232 90.8066 64.2041C91.0352 64.5765 91.3314 64.8685 91.6953 65.0801C92.0592 65.2917 92.5036 65.3975 93.0283 65.3975C93.5361 65.3975 93.972 65.2917 94.3359 65.0801C94.6999 64.8685 94.9919 64.5765 95.2119 64.2041C95.432 63.8232 95.5928 63.3831 95.6943 62.8838C95.8044 62.3844 95.8594 61.847 95.8594 61.2715V61.0049C95.8594 60.4463 95.8044 59.9215 95.6943 59.4307C95.5928 58.9313 95.4277 58.4912 95.1992 58.1104C94.9792 57.721 94.6872 57.4163 94.3232 57.1963C93.9593 56.9762 93.5192 56.8662 93.0029 56.8662C92.4867 56.8662 92.0465 56.9762 91.6826 57.1963C91.3271 57.4163 91.0352 57.721 90.8066 58.1104C90.5866 58.4912 90.4258 58.9313 90.3242 59.4307C90.2227 59.9215 90.1719 60.4463 90.1719 61.0049ZM104.055 57.1963V68H100.399V54.2637H103.827L104.055 57.1963ZM103.522 60.6494H102.532C102.532 59.6338 102.663 58.7197 102.926 57.9072C103.188 57.0863 103.556 56.388 104.03 55.8125C104.504 55.2285 105.067 54.7842 105.719 54.4795C106.379 54.1663 107.115 54.0098 107.928 54.0098C108.571 54.0098 109.159 54.1029 109.692 54.2891C110.225 54.4753 110.682 54.7715 111.063 55.1777C111.453 55.584 111.749 56.1214 111.952 56.79C112.164 57.4587 112.269 58.2754 112.269 59.2402V68H108.588V59.2275C108.588 58.6182 108.503 58.1442 108.334 57.8057C108.165 57.4671 107.915 57.2301 107.585 57.0947C107.263 56.9508 106.865 56.8789 106.391 56.8789C105.901 56.8789 105.473 56.9762 105.109 57.1709C104.754 57.3656 104.457 57.6364 104.221 57.9834C103.992 58.3219 103.818 58.7197 103.7 59.1768C103.582 59.6338 103.522 60.1247 103.522 60.6494ZM117.609 54.2637V68H113.94V54.2637H117.609ZM113.712 50.6836C113.712 50.1504 113.898 49.7103 114.27 49.3633C114.643 49.0163 115.142 48.8428 115.768 48.8428C116.386 48.8428 116.881 49.0163 117.254 49.3633C117.634 49.7103 117.825 50.1504 117.825 50.6836C117.825 51.2168 117.634 51.6569 117.254 52.0039C116.881 52.3509 116.386 52.5244 115.768 52.5244C115.142 52.5244 114.643 52.3509 114.27 52.0039C113.898 51.6569 113.712 51.2168 113.712 50.6836ZM126.059 54.2637V56.8535H118.061V54.2637H126.059ZM120.041 50.874H123.698V63.8613C123.698 64.2591 123.748 64.5638 123.85 64.7754C123.96 64.987 124.121 65.1351 124.332 65.2197C124.544 65.2959 124.811 65.334 125.132 65.334C125.361 65.334 125.564 65.3255 125.742 65.3086C125.928 65.2832 126.084 65.2578 126.211 65.2324L126.224 67.9238C125.911 68.0254 125.572 68.1058 125.208 68.165C124.844 68.2243 124.442 68.2539 124.002 68.2539C123.198 68.2539 122.496 68.1227 121.895 67.8604C121.302 67.5895 120.845 67.1579 120.524 66.5654C120.202 65.973 120.041 65.1943 120.041 64.2295V50.874ZM125.927 61.2715V61.0049C125.927 59.9977 126.071 59.071 126.359 58.2246C126.646 57.3698 127.065 56.6292 127.615 56.0029C128.166 55.3766 128.843 54.89 129.647 54.543C130.451 54.1875 131.373 54.0098 132.414 54.0098C133.455 54.0098 134.382 54.1875 135.195 54.543C136.007 54.89 136.688 55.3766 137.238 56.0029C137.797 56.6292 138.22 57.3698 138.508 58.2246C138.796 59.071 138.94 59.9977 138.94 61.0049V61.2715C138.94 62.2702 138.796 63.1969 138.508 64.0518C138.22 64.8981 137.797 65.6387 137.238 66.2734C136.688 66.8997 136.011 67.3864 135.207 67.7334C134.403 68.0804 133.481 68.2539 132.44 68.2539C131.399 68.2539 130.472 68.0804 129.659 67.7334C128.855 67.3864 128.174 66.8997 127.615 66.2734C127.065 65.6387 126.646 64.8981 126.359 64.0518C126.071 63.1969 125.927 62.2702 125.927 61.2715ZM129.583 61.0049V61.2715C129.583 61.847 129.634 62.3844 129.736 62.8838C129.837 63.3831 129.998 63.8232 130.218 64.2041C130.446 64.5765 130.743 64.8685 131.107 65.0801C131.471 65.2917 131.915 65.3975 132.44 65.3975C132.947 65.3975 133.383 65.2917 133.747 65.0801C134.111 64.8685 134.403 64.5765 134.623 64.2041C134.843 63.8232 135.004 63.3831 135.106 62.8838C135.216 62.3844 135.271 61.847 135.271 61.2715V61.0049C135.271 60.4463 135.216 59.9215 135.106 59.4307C135.004 58.9313 134.839 58.4912 134.611 58.1104C134.39 57.721 134.099 57.4163 133.735 57.1963C133.371 56.9762 132.931 56.8662 132.414 56.8662C131.898 56.8662 131.458 56.9762 131.094 57.1963C130.738 57.4163 130.446 57.721 130.218 58.1104C129.998 58.4912 129.837 58.9313 129.736 59.4307C129.634 59.9215 129.583 60.4463 129.583 61.0049Z" fill="#F5F5F5"/>
</svg>
